<svg xmlns="http://www.w3.org/2000/svg">
	<symbol id="lnr-lock" viewBox="0 0 1024 1024"><title>lock</title><path class="path1" d="M742.4 409.6h-25.6v-76.8c0-127.043-103.357-230.4-230.4-230.4s-230.4 103.357-230.4 230.4v76.8h-25.6c-42.347 0-76.8 34.453-76.8 76.8v409.6c0 42.347 34.453 76.8 76.8 76.8h512c42.347 0 76.8-34.453 76.8-76.8v-409.6c0-42.347-34.453-76.8-76.8-76.8zM307.2 332.8c0-98.811 80.389-179.2 179.2-179.2s179.2 80.389 179.2 179.2v76.8h-358.4v-76.8zM768 896c0 14.115-11.485 25.6-25.6 25.6h-512c-14.115 0-25.6-11.485-25.6-25.6v-409.6c0-14.115 11.485-25.6 25.6-25.6h512c14.115 0 25.6 11.485 25.6 25.6v409.6z"></path></symbol>
	<symbol id="lnr-users" viewBox="0 0 1024 1024"><title>users</title><path class="path1" d="M947.2 921.6h-563.2c-42.347 0-76.8-34.453-76.8-76.8 0-2.461 0.538-60.952 47.331-118.544 26.883-33.088 63.541-59.31 108.952-77.941 54.856-22.504 122.858-33.915 202.117-33.915s147.261 11.411 202.117 33.915c45.411 18.63 82.067 44.853 108.952 77.941 46.794 57.592 47.331 116.083 47.331 118.544 0 42.347-34.453 76.8-76.8 76.8zM358.4 844.931c0.072 14.056 11.528 25.469 25.6 25.469h563.2c14.072 0 25.528-11.413 25.6-25.469-0.048-1.786-1.656-45.802-37.851-88.786-49.88-59.235-143.019-90.546-269.349-90.546s-219.469 31.31-269.349 90.546c-36.194 42.984-37.803 87-37.851 88.786z"></path><path class="path2" d="M665.6 563.2c-112.926 0-204.8-91.874-204.8-204.8 0-112.928 91.874-204.8 204.8-204.8s204.8 91.872 204.8 204.8c0 112.926-91.874 204.8-204.8 204.8zM665.6 204.8c-84.696 0-153.6 68.904-153.6 153.6s68.904 153.6 153.6 153.6 153.6-68.904 153.6-153.6-68.904-153.6-153.6-153.6z"></path><path class="path3" d="M230.4 921.6h-153.6c-42.347 0-76.8-34.451-76.8-76.8 0-1.915 0.386-47.446 33.92-92.16 19.373-25.832 45.778-46.299 78.483-60.834 39.126-17.389 87.438-26.206 143.597-26.206 9.16 0 18.232 0.235 26.962 0.701 14.118 0.754 24.954 12.81 24.2 26.928-0.752 14.117-12.781 24.96-26.928 24.2-7.826-0.418-15.979-0.629-24.234-0.629-199.366 0-204.666 121.826-204.8 128.131 0.072 14.054 11.528 25.469 25.6 25.469h153.6c14.138 0 25.6 11.461 25.6 25.6s-11.462 25.6-25.6 25.6z"></path><path class="path4" d="M256 614.4c-84.696 0-153.6-68.904-153.6-153.6s68.904-153.6 153.6-153.6 153.6 68.904 153.6 153.6-68.904 153.6-153.6 153.6zM256 358.4c-56.464 0-102.4 45.936-102.4 102.4s45.936 102.4 102.4 102.4 102.4-45.936 102.4-102.4c0-56.464-45.936-102.4-102.4-102.4z"></path></symbol>
	<symbol id="lnr-cog" viewBox="0 0 1024 1024"><title>cog</title><path class="path1" d="M390.71 1008.755c-2.109 0-4.248-0.262-6.378-0.81-45.976-11.803-90.149-30.042-131.291-54.21-11.923-7.003-16.13-22.21-9.501-34.344 8.15-14.925 12.459-31.866 12.459-48.992 0-56.464-45.936-102.4-102.4-102.4-17.125 0-34.066 4.309-48.992 12.459-12.133 6.627-27.339 2.421-34.342-9.501-24.17-41.142-42.408-85.315-54.211-131.293-3.333-12.989 3.92-26.349 16.629-30.629 41.699-14.037 69.717-53.034 69.717-97.037s-28.018-83-69.718-97.040c-12.707-4.278-19.962-17.638-16.627-30.627 11.803-45.976 30.042-90.149 54.211-131.291 7.003-11.923 22.21-16.13 34.344-9.501 14.923 8.15 31.864 12.459 48.99 12.459 56.464 0 102.4-45.936 102.4-102.4 0-17.126-4.309-34.067-12.459-48.99-6.629-12.134-2.422-27.341 9.501-34.344 41.141-24.168 85.314-42.408 131.291-54.211 12.994-3.334 26.349 3.92 30.627 16.627 14.040 41.701 53.037 69.718 97.040 69.718s83-28.018 97.038-69.717c4.28-12.71 17.645-19.965 30.629-16.629 45.976 11.802 90.15 30.042 131.293 54.211 11.922 7.003 16.128 22.208 9.501 34.342-8.152 14.926-12.461 31.867-12.461 48.992 0 56.464 45.936 102.4 102.4 102.4 17.126 0 34.067-4.309 48.992-12.459 12.138-6.629 27.341-2.421 34.344 9.501 24.166 41.141 42.406 85.314 54.21 131.291 3.334 12.989-3.918 26.349-16.627 30.627-41.701 14.040-69.718 53.037-69.718 97.040s28.018 83 69.718 97.038c12.707 4.28 19.962 17.638 16.627 30.629-11.803 45.976-30.042 90.15-54.21 131.291-7.005 11.925-22.208 16.128-34.344 9.502-14.926-8.152-31.867-12.461-48.992-12.461-56.464 0-102.4 45.936-102.4 102.4 0 17.125 4.309 34.066 12.461 48.992 6.627 12.136 2.421 27.341-9.502 34.344-41.141 24.166-85.314 42.406-131.291 54.21-12.992 3.336-26.349-3.918-30.629-16.627-14.038-41.701-53.035-69.718-97.038-69.718s-83 28.018-97.040 69.718c-3.578 10.624-13.502 17.437-24.25 17.437zM512 870.4c57.715 0 109.693 32.138 135.917 82.029 26.637-8.218 52.507-18.875 77.299-31.846-5.541-16.077-8.416-33.075-8.416-50.182 0-84.696 68.904-153.6 153.6-153.6 17.107 0 34.106 2.875 50.181 8.418 12.971-24.792 23.63-50.662 31.846-77.299-49.89-26.226-82.027-78.203-82.027-135.918s32.138-109.691 82.029-135.918c-8.218-26.637-18.875-52.506-31.846-77.299-16.077 5.542-33.074 8.418-50.182 8.418-84.696 0-153.6-68.904-153.6-153.6 0-17.107 2.875-34.106 8.418-50.181-24.792-12.971-50.662-23.63-77.299-31.846-26.226 49.89-78.203 82.027-135.918 82.027s-109.691-32.138-135.917-82.027c-26.637 8.216-52.507 18.874-77.299 31.846 5.542 16.075 8.416 33.072 8.416 50.181 0 84.696-68.904 153.6-153.6 153.6-17.109 0-34.106-2.874-50.181-8.418-12.973 24.794-23.63 50.662-31.846 77.299 49.89 26.227 82.027 78.203 82.027 135.918s-32.138 109.693-82.027 135.917c8.216 26.637 18.875 52.507 31.846 77.299 16.075-5.541 33.074-8.416 50.181-8.416 84.696 0 153.6 68.904 153.6 153.6 0 17.109-2.875 34.106-8.418 50.181 24.794 12.971 50.662 23.63 77.299 31.846 26.227-49.89 78.203-82.027 135.918-82.027z"></path><path class="path2" d="M512 665.6c-84.696 0-153.6-68.904-153.6-153.6s68.904-153.6 153.6-153.6 153.6 68.904 153.6 153.6-68.904 153.6-153.6 153.6zM512 409.6c-56.464 0-102.4 45.936-102.4 102.4s45.936 102.4 102.4 102.4c56.464 0 102.4-45.936 102.4-102.4s-45.936-102.4-102.4-102.4z"></path></symbol>
	<symbol id="lnr-power-switch" viewBox="0 0 1024 1024"><title>power-switch</title><path class="path1" d="M486.4 614.4c-14.138 0-25.6-11.461-25.6-25.6v-460.8c0-14.138 11.462-25.6 25.6-25.6s25.6 11.462 25.6 25.6v460.8c0 14.139-11.462 25.6-25.6 25.6z"></path><path class="path2" d="M486.4 972.8c-102.57 0-199-39.944-271.53-112.47-72.528-72.528-112.47-168.96-112.47-271.53 0-84.395 26.859-164.478 77.674-231.594 49.15-64.915 118.979-113.394 196.624-136.501 13.55-4.034 27.805 3.683 31.838 17.234s-3.683 27.805-17.234 31.838c-139.955 41.654-237.702 172.84-237.702 319.022 0 183.506 149.294 332.8 332.8 332.8s332.8-149.294 332.8-332.8c0-146.187-97.75-277.374-237.71-319.024-13.552-4.034-21.267-18.288-17.234-31.838 4.032-13.552 18.29-21.267 31.837-17.235 77.646 23.106 147.48 71.582 196.632 136.499 50.816 67.115 77.675 147.202 77.675 231.598 0 102.57-39.942 199.002-112.47 271.53-72.528 72.526-168.96 112.47-271.53 112.47z"></path></symbol>
	<symbol id="lnr-pencil" viewBox="0 0 1024 1024"><title>pencil</title><path class="path1" d="M978.101 45.898c-28.77-28.768-67.018-44.611-107.701-44.611-40.685 0-78.933 15.843-107.701 44.611l-652.8 652.8c-2.645 2.645-4.678 5.837-5.957 9.354l-102.4 281.6c-3.4 9.347-1.077 19.818 5.957 26.85 4.885 4.888 11.43 7.499 18.104 7.499 2.933 0 5.891-0.502 8.744-1.541l281.6-102.4c3.515-1.28 6.709-3.312 9.354-5.958l652.8-652.8c28.768-28.768 44.613-67.018 44.613-107.702s-15.843-78.933-44.613-107.701zM293.114 873.883l-224.709 81.71 81.712-224.707 566.683-566.683 142.997 142.997-566.683 566.683zM941.899 225.098l-45.899 45.899-142.997-142.997 45.899-45.899c19.098-19.098 44.49-29.614 71.498-29.614s52.4 10.518 71.499 29.616c19.098 19.098 29.616 44.49 29.616 71.498s-10.52 52.4-29.616 71.498z"></path></symbol>
	<symbol id="lnr-magnifier" viewBox="0 0 1024 1024"><title>magnifier</title><path class="path1" d="M966.070 981.101l-304.302-331.965c68.573-71.754 106.232-165.549 106.232-265.136 0-102.57-39.942-199-112.47-271.53s-168.96-112.47-271.53-112.47-199 39.942-271.53 112.47-112.47 168.96-112.47 271.53 39.942 199.002 112.47 271.53 168.96 112.47 271.53 112.47c88.362 0 172.152-29.667 240.043-84.248l304.285 331.947c5.050 5.507 11.954 8.301 18.878 8.301 6.179 0 12.378-2.226 17.293-6.728 10.421-9.555 11.126-25.749 1.571-36.171zM51.2 384c0-183.506 149.294-332.8 332.8-332.8s332.8 149.294 332.8 332.8-149.294 332.8-332.8 332.8-332.8-149.294-332.8-332.8z"></path></symbol>
	<symbol id="lnr-magic-wand" viewBox="0 0 1024 1024"><title>magic-wand</title><path class="path1" d="M588.8 358.4c-14.139 0-25.6-11.462-25.6-25.6 0-70.579-57.421-128-128-128-14.138 0-25.6-11.462-25.6-25.6s11.462-25.6 25.6-25.6c70.579 0 128-57.421 128-128 0-14.138 11.461-25.6 25.6-25.6s25.6 11.462 25.6 25.6c0 70.579 57.421 128 128 128 14.139 0 25.6 11.462 25.6 25.6s-11.461 25.6-25.6 25.6c-70.579 0-128 57.421-128 128 0 14.138-11.461 25.6-25.6 25.6zM527.426 179.2c25.11 15.136 46.238 36.264 61.374 61.376 15.136-25.112 36.264-46.24 61.376-61.376-25.112-15.136-46.24-36.264-61.376-61.376-15.136 25.112-36.264 46.24-61.374 61.376z"></path><path class="path2" d="M76.8 512c-14.138 0-25.6-11.462-25.6-25.6 0-14.115-11.485-25.6-25.6-25.6-14.138 0-25.6-11.462-25.6-25.6s11.462-25.6 25.6-25.6c14.115 0 25.6-11.485 25.6-25.6 0-14.138 11.462-25.6 25.6-25.6s25.6 11.462 25.6 25.6c0 14.115 11.485 25.6 25.6 25.6 14.138 0 25.6 11.462 25.6 25.6s-11.462 25.6-25.6 25.6c-14.115 0-25.6 11.485-25.6 25.6 0 14.138-11.462 25.6-25.6 25.6z"></path><path class="path3" d="M929.101 816.096l-541.995-541.994c-14.466-14.466-33.752-22.432-54.306-22.432s-39.84 7.966-54.306 22.432l-29.992 29.992c-14.466 14.466-22.432 33.752-22.432 54.306s7.966 39.84 22.432 54.306l541.994 541.992c14.464 14.466 33.75 22.434 54.304 22.434s39.84-7.965 54.306-22.434l29.994-29.992c14.466-14.464 22.432-33.752 22.432-54.304s-7.965-39.842-22.43-54.306zM284.706 340.298l29.992-29.992c4.795-4.795 11.224-7.435 18.102-7.435s13.307 2.64 18.102 7.435l73.691 73.693-66.197 66.197-73.691-73.691c-9.982-9.984-9.982-26.224 0-36.206zM892.894 888.502l-29.994 29.992c-4.794 4.794-11.224 7.434-18.099 7.434s-13.306-2.64-18.099-7.434l-432.102-432.099 66.197-66.195 432.098 432.099c9.981 9.981 9.981 26.222 0 36.203z"></path><path class="path4" d="M179.2 256c-14.138 0-25.6-11.462-25.6-25.6 0-42.347-34.453-76.8-76.8-76.8-14.138 0-25.6-11.462-25.6-25.6s11.462-25.6 25.6-25.6c42.347 0 76.8-34.453 76.8-76.8 0-14.138 11.462-25.6 25.6-25.6s25.6 11.462 25.6 25.6c0 42.347 34.453 76.8 76.8 76.8 14.138 0 25.6 11.462 25.6 25.6s-11.462 25.6-25.6 25.6c-42.347 0-76.8 34.453-76.8 76.8 0 14.138-11.462 25.6-25.6 25.6zM153.52 128c9.725 7.304 18.376 15.957 25.68 25.68 7.304-9.725 15.957-18.376 25.68-25.68-9.725-7.304-18.376-15.957-25.68-25.68-7.304 9.723-15.957 18.376-25.68 25.68z"></path><path class="path5" d="M179.2 768c-14.138 0-25.6-11.461-25.6-25.6 0-42.347-34.453-76.8-76.8-76.8-14.138 0-25.6-11.461-25.6-25.6s11.462-25.6 25.6-25.6c42.347 0 76.8-34.453 76.8-76.8 0-14.139 11.462-25.6 25.6-25.6s25.6 11.461 25.6 25.6c0 42.347 34.453 76.8 76.8 76.8 14.138 0 25.6 11.461 25.6 25.6s-11.462 25.6-25.6 25.6c-42.347 0-76.8 34.453-76.8 76.8 0 14.139-11.462 25.6-25.6 25.6zM153.52 640c9.725 7.302 18.376 15.957 25.68 25.68 7.304-9.723 15.957-18.374 25.68-25.68-9.725-7.302-18.376-15.957-25.68-25.68-7.304 9.723-15.957 18.378-25.68 25.68z"></path></symbol>
	<symbol id="lnr-location" viewBox="0 0 1024 1024"><title>location</title><path class="path1" d="M435.202 1024.002c-2.205 0-4.435-0.285-6.642-0.878-11.186-3.003-18.96-13.142-18.96-24.723v-384h-384c-11.581 0-21.72-7.774-24.723-18.96-3.005-11.184 1.874-22.994 11.898-28.795l972.8-563.2c10.037-5.811 22.726-4.147 30.928 4.053 8.202 8.202 9.864 20.891 4.053 30.93l-563.2 972.8c-4.658 8.045-13.186 12.774-22.154 12.774zM120.912 563.2h314.288c14.138 0 25.6 11.461 25.6 25.6v314.288l467.346-807.234-807.234 467.346z"></path></symbol>
	<symbol id="lnr-link" viewBox="0 0 1024 1024"><title>link</title><path class="path1" d="M546.917 665.512c-48.275 0-96.55-18.376-133.301-55.128-9.998-9.997-9.998-26.206 0-36.203s26.205-9.997 36.203 0c53.539 53.541 140.656 53.541 194.197 0l186.166-186.166c53.539-53.539 53.539-140.656 0-194.197-53.541-53.539-140.656-53.538-194.197 0l-157.082 157.083c-9.998 9.997-26.206 9.997-36.203 0-9.998-9.998-9.998-26.206 0-36.205l157.083-157.083c73.502-73.501 193.101-73.501 266.603 0s73.502 193.101 0 266.603l-186.168 186.168c-36.752 36.752-85.027 55.128-133.302 55.128z"></path><path class="path2" d="M239.717 972.712c-48.275 0-96.55-18.376-133.302-55.128-73.501-73.502-73.501-193.101 0-266.603l186.166-186.166c73.501-73.501 193.101-73.501 266.603 0 9.998 9.998 9.998 26.206 0 36.203-9.997 9.998-26.206 9.998-36.203 0-53.541-53.541-140.656-53.541-194.197 0l-186.165 186.166c-53.539 53.541-53.539 140.656 0 194.197s140.656 53.541 194.195 0l157.083-157.083c9.997-9.997 26.206-9.997 36.203 0 9.998 9.997 9.998 26.206 0 36.203l-157.083 157.083c-36.75 36.752-85.026 55.128-133.301 55.128z"></path></symbol>
	<symbol id="lnr-home" viewBox="0 0 1024 1024"><title>home</title><path class="path1" d="M1017.382 622.826l-452.050-499.634c-14.051-15.533-32.992-24.086-53.333-24.086-0.002 0 0 0 0 0-20.339 0-39.282 8.555-53.334 24.086l-452.050 499.634c-9.485 10.485-8.675 26.674 1.808 36.158 4.899 4.432 11.043 6.616 17.168 6.616 6.982 0 13.938-2.838 18.992-8.426l109.016-120.491v410.517c0 42.347 34.453 76.8 76.8 76.8h563.2c42.347 0 76.8-34.453 76.8-76.8v-410.517l109.018 120.493c9.485 10.483 25.674 11.296 36.158 1.808 10.483-9.485 11.293-25.675 1.806-36.158zM614.4 972.8h-204.8v-230.4c0-14.115 11.485-25.6 25.6-25.6h153.6c14.115 0 25.6 11.485 25.6 25.6v230.4zM819.2 947.2c0 14.115-11.485 25.6-25.6 25.6h-128v-230.4c0-42.349-34.451-76.8-76.8-76.8h-153.6c-42.347 0-76.8 34.451-76.8 76.8v230.4h-128c-14.115 0-25.6-11.485-25.6-25.6v-467.106l291.832-322.552c4.222-4.667 9.68-7.237 15.368-7.237s11.146 2.57 15.366 7.235l291.834 322.552v467.107z"></path></symbol>
	<symbol id="lnr-question-circle" viewBox="0 0 1024 1024"><title>question-circle</title><path class="path1" d="M830.338 193.664c-91.869-91.869-214.016-142.464-343.938-142.464s-252.067 50.595-343.936 142.464-142.464 214.014-142.464 343.936 50.595 252.069 142.464 343.938 214.014 142.462 343.936 142.462 252.069-50.594 343.938-142.462 142.462-214.016 142.462-343.938-50.594-252.067-142.462-343.936zM486.4 972.8c-239.97 0-435.2-195.23-435.2-435.2s195.23-435.2 435.2-435.2c239.97 0 435.2 195.23 435.2 435.2s-195.23 435.2-435.2 435.2z"></path><path class="path2" d="M486.4 768c-14.138 0-25.6-11.461-25.6-25.6v-102.4c0-14.139 11.462-25.6 25.6-25.6 98.811 0 179.2-80.389 179.2-179.2s-80.389-179.2-179.2-179.2-179.2 80.389-179.2 179.2c0 14.138-11.462 25.6-25.6 25.6s-25.6-11.462-25.6-25.6c0-127.043 103.357-230.4 230.4-230.4 127.042 0 230.4 103.357 230.4 230.4 0 118.389-89.763 216.211-204.8 228.987v78.213c0 14.139-11.462 25.6-25.6 25.6z"></path><path class="path3" d="M486.4 921.6c-0.002 0 0 0 0 0-14.139 0-25.6-11.462-25.6-25.6v-51.2c0-14.138 11.462-25.6 25.6-25.6 0 0 0 0 0 0 14.139 0 25.6 11.462 25.6 25.6v51.2c0 14.138-11.464 25.6-25.6 25.6z"></path></symbol>
	<symbol id="lnr-envelope" viewBox="0 0 1024 1024"><title>envelope</title><path class="path1" d="M896 307.2h-819.2c-42.347 0-76.8 34.453-76.8 76.8v460.8c0 42.349 34.453 76.8 76.8 76.8h819.2c42.349 0 76.8-34.451 76.8-76.8v-460.8c0-42.347-34.451-76.8-76.8-76.8zM896 358.4c1.514 0 2.99 0.158 4.434 0.411l-385.632 257.090c-14.862 9.907-41.938 9.907-56.802 0l-385.634-257.090c1.443-0.253 2.92-0.411 4.434-0.411h819.2zM896 870.4h-819.2c-14.115 0-25.6-11.485-25.6-25.6v-438.566l378.4 252.267c15.925 10.618 36.363 15.925 56.8 15.925s40.877-5.307 56.802-15.925l378.398-252.267v438.566c0 14.115-11.485 25.6-25.6 25.6z"></path></symbol>
	<symbol id="lnr-download" viewBox="0 0 1024 1024"><title>download</title><path class="path1" d="M760.499 493.901c-9.995-9.997-26.206-9.997-36.203 0l-212.296 212.294v-578.195c0-14.138-11.462-25.6-25.6-25.6s-25.6 11.462-25.6 25.6v578.195l-212.298-212.294c-9.998-9.997-26.206-9.997-36.205 0-9.997 9.995-9.997 26.206 0 36.203l256 256c5 4.997 11.55 7.496 18.102 7.496s13.102-2.499 18.102-7.501l256-256c9.997-9.995 9.997-26.203-0.003-36.198z"></path><path class="path2" d="M896 972.8h-819.2c-42.347 0-76.8-34.451-76.8-76.8v-102.4c0-14.139 11.462-25.6 25.6-25.6s25.6 11.461 25.6 25.6v102.4c0 14.115 11.485 25.6 25.6 25.6h819.2c14.115 0 25.6-11.485 25.6-25.6v-102.4c0-14.139 11.461-25.6 25.6-25.6s25.6 11.461 25.6 25.6v102.4c0 42.349-34.451 76.8-76.8 76.8z"></path></symbol>
	<symbol id="lnr-chevron-left" viewBox="0 0 1024 1024"><title>chevron-left</title><path class="path1" d="M716.8 1024c6.552 0 13.102-2.499 18.101-7.499 9.998-9.997 9.998-26.206 0-36.203l-442.698-442.698 442.698-442.699c9.998-9.997 9.998-26.206 0-36.203s-26.206-9.998-36.203 0l-460.8 460.8c-9.998 9.997-9.998 26.206 0 36.203l460.8 460.8c5 5 11.55 7.499 18.102 7.499z"></path></symbol>
	<symbol id="lnr-pie-chart" viewBox="0 0 1024 1024"><title>pie-chart</title><path class="path1" d="M435.2 1024c-116.246 0-225.534-45.269-307.733-127.467s-127.467-191.488-127.467-307.733c0-116.246 45.269-225.534 127.467-307.733s191.486-127.467 307.733-127.467c14.138 0 25.6 11.462 25.6 25.6v384h384c14.139 0 25.6 11.461 25.6 25.6 0 116.245-45.269 225.534-127.467 307.733s-191.488 127.467-307.733 127.467zM409.6 205.643c-199.842 13.226-358.4 180.026-358.4 383.157 0 211.739 172.262 384 384 384 203.131 0 369.931-158.558 383.157-358.4h-383.157c-14.138 0-25.6-11.461-25.6-25.6v-383.157z"></path><path class="path2" d="M947.2 512h-409.6c-14.139 0-25.6-11.462-25.6-25.6v-409.6c0-14.138 11.461-25.6 25.6-25.6 116.245 0 225.534 45.269 307.733 127.467s127.467 191.486 127.467 307.733c0 14.138-11.461 25.6-25.6 25.6zM563.2 460.8h357.557c-12.664-191.374-166.184-344.891-357.557-357.557v357.557z"></path></symbol>
	<symbol id="lnr-cart" viewBox="0 0 1024 1024"><title>cart</title><path class="path1" d="M409.6 1024c-56.464 0-102.4-45.936-102.4-102.4s45.936-102.4 102.4-102.4 102.4 45.936 102.4 102.4-45.936 102.4-102.4 102.4zM409.6 870.4c-28.232 0-51.2 22.968-51.2 51.2s22.968 51.2 51.2 51.2 51.2-22.968 51.2-51.2-22.968-51.2-51.2-51.2z"></path><path class="path2" d="M768 1024c-56.464 0-102.4-45.936-102.4-102.4s45.936-102.4 102.4-102.4 102.4 45.936 102.4 102.4-45.936 102.4-102.4 102.4zM768 870.4c-28.232 0-51.2 22.968-51.2 51.2s22.968 51.2 51.2 51.2 51.2-22.968 51.2-51.2-22.968-51.2-51.2-51.2z"></path><path class="path3" d="M898.021 228.688c-12.859-15.181-32.258-23.888-53.221-23.888h-626.846l-5.085-30.506c-6.72-40.315-43.998-71.894-84.869-71.894h-51.2c-14.138 0-25.6 11.462-25.6 25.6s11.462 25.6 25.6 25.6h51.2c15.722 0 31.781 13.603 34.366 29.112l85.566 513.395c6.718 40.314 43.997 71.893 84.867 71.893h512c14.139 0 25.6-11.461 25.6-25.6s-11.461-25.6-25.6-25.6h-512c-15.722 0-31.781-13.603-34.366-29.11l-12.63-75.784 510.206-44.366c39.69-3.451 75.907-36.938 82.458-76.234l34.366-206.194c3.448-20.677-1.952-41.243-14.813-56.424zM862.331 276.694l-34.366 206.194c-2.699 16.186-20.043 32.221-36.39 33.645l-514.214 44.714-50.874-305.246h618.314c5.968 0 10.995 2.054 14.155 5.782 3.157 3.73 4.357 9.024 3.376 14.912z"></path></symbol>
	<symbol id="lnr-arrow-up" viewBox="0 0 1024 1024"><title>arrow-up</title><path class="path1" d="M468.299 33.099l-307.2 307.2c-9.997 9.997-9.997 26.206 0 36.203 9.998 9.998 26.206 9.998 36.205 0l263.496-263.498v834.195c0 14.138 11.461 25.6 25.6 25.6s25.6-11.462 25.6-25.6v-834.195l263.499 263.496c9.997 9.998 26.206 9.998 36.203 0 4.998-4.998 7.498-11.549 7.498-18.101s-2.499-13.102-7.499-18.101l-307.2-307.2c-9.997-9.998-26.205-9.998-36.202 0z"></path></symbol>
	<symbol id="lnr-alarm" viewBox="0 0 1024 1024"><title>alarm</title><path class="path1" d="M860.171 773.15c-58.576-44-92.171-111.194-92.171-184.35v-153.6c0-128.661-86.733-237.442-204.798-270.954l-0.002-36.246c0-42.347-34.451-76.8-76.8-76.8-42.347 0-76.8 34.453-76.8 76.8v36.245c-118.067 33.512-204.8 142.294-204.8 270.955v153.6c0 73.157-33.595 140.349-92.171 184.35-8.808 6.616-12.395 18.125-8.907 28.573 3.486 10.448 13.267 17.496 24.283 17.496h232.982c-1.709 8.384-2.587 16.955-2.587 25.581 0 70.579 57.421 128 128 128s128-57.421 128-128c0-8.626-0.878-17.197-2.584-25.581h232.981c11.016 0 20.795-7.046 24.283-17.496s-0.101-21.957-8.909-28.573zM460.8 128c0-14.115 11.485-25.6 25.6-25.6s25.6 11.485 25.6 25.6v26.774c-8.435-0.763-16.97-1.176-25.6-1.176s-17.166 0.413-25.6 1.176v-26.774zM563.2 844.8c0 42.347-34.453 76.8-76.8 76.8s-76.8-34.453-76.8-76.8c0-8.76 1.515-17.411 4.394-25.581h144.813c2.878 8.168 4.394 16.821 4.394 25.581zM191.571 768.019c13.075-15.826 24.437-33.051 33.744-51.27 20.362-39.858 30.685-82.906 30.685-127.949v-153.6c0-127.043 103.357-230.4 230.4-230.4s230.4 103.357 230.4 230.4v153.6c0 45.043 10.323 88.091 30.685 127.949 9.307 18.219 20.669 35.445 33.744 51.27h-589.658z"></path></symbol>
	<symbol id="lnr-cross" viewBox="0 0 1024 1024"><title>cross</title><path class="path1" d="M548.203 537.6l289.099-289.098c9.998-9.998 9.998-26.206 0-36.205-9.997-9.997-26.206-9.997-36.203 0l-289.099 289.099-289.098-289.099c-9.998-9.997-26.206-9.997-36.205 0-9.997 9.998-9.997 26.206 0 36.205l289.099 289.098-289.099 289.099c-9.997 9.997-9.997 26.206 0 36.203 5 4.998 11.55 7.498 18.102 7.498s13.102-2.499 18.102-7.499l289.098-289.098 289.099 289.099c4.998 4.998 11.549 7.498 18.101 7.498s13.102-2.499 18.101-7.499c9.998-9.997 9.998-26.206 0-36.203l-289.098-289.098z"></path></symbol>
	<symbol id="lnr-star" viewBox="0 0 1024 1024"><title>star</title><path class="path1" d="M793.598 972.8c-4.205 0-8.422-1.034-12.258-3.126l-269.341-146.912-269.341 146.912c-8.598 4.691-19.118 4.061-27.098-1.613-7.981-5.677-12.022-15.41-10.413-25.069l49.034-294.206-195.483-195.485c-6.781-6.781-9.203-16.782-6.277-25.914s10.712-15.862 20.17-17.438l294.341-49.058 122.17-244.339c4.336-8.674 13.2-14.152 22.898-14.152s18.562 5.478 22.898 14.152l122.17 244.339 294.341 49.058c9.459 1.576 17.243 8.307 20.17 17.438s0.504 19.133-6.277 25.914l-195.483 195.485 49.034 294.206c1.61 9.659-2.434 19.392-10.413 25.069-4.419 3.144-9.621 4.739-14.84 4.739zM512 768c4.219 0 8.437 1.042 12.259 3.126l235.445 128.426-42.557-255.344c-1.36-8.155 1.302-16.464 7.15-22.309l169.626-169.626-258.131-43.022c-8.080-1.346-15.027-6.477-18.69-13.803l-105.102-210.205-105.102 210.205c-3.664 7.326-10.61 12.458-18.69 13.803l-258.131 43.022 169.624 169.626c5.846 5.845 8.509 14.155 7.15 22.309l-42.557 255.344 235.446-128.426c3.821-2.085 8.040-3.126 12.259-3.126z"></path></symbol>
	<symbol id="quotes" viewBox="0 0 32 32"><path d="M25 20c-3.866 0-7-3.134-7-7s3.134-7 7-7 7 3.134 7 7l0.031 1c0 7.732-6.268 14-14 14v-4c2.671 0 5.182-1.040 7.071-2.929 0.364-0.364 0.695-0.75 0.995-1.157-0.357 0.056-0.724 0.086-1.097 0.086zM7 20c-3.866 0-7-3.134-7-7s3.134-7 7-7 7 3.134 7 7l0.031 1c0 7.732-6.268 14-14 14v-4c2.671 0 5.182-1.040 7.071-2.929 0.364-0.364 0.695-0.75 0.995-1.157-0.357 0.056-0.724 0.086-1.097 0.086z"></path></symbol>
</svg>
