<svg id="visual" viewBox="0 0 960 540" width="960" height="540" xmlns="http://www.w3.org/2000/svg" xmlns:xlink="http://www.w3.org/1999/xlink" version="1.1"><g stroke-width="1" stroke-linejoin="bevel"><path d="M559.3 243L661 201L542.3 177Z" fill="#112e42" stroke="#112e42"></path><path d="M559.3 243L643 291L661 201Z" fill="#246688" stroke="#246688"></path><path d="M661 201L563.3 98L542.3 177Z" fill="#0c2435" stroke="#0c2435"></path><path d="M661 201L669 102L563.3 98Z" fill="#112e42" stroke="#112e42"></path><path d="M746.7 265L739.7 203L661 201Z" fill="#277297" stroke="#277297"></path><path d="M661 201L739.7 203L669 102Z" fill="#19435d" stroke="#19435d"></path><path d="M643 291L746.7 265L661 201Z" fill="#1d4e6b" stroke="#1d4e6b"></path><path d="M563.3 98L438.7 150L542.3 177Z" fill="#297ea6" stroke="#297ea6"></path><path d="M542.3 177L438.7 150L559.3 243Z" fill="#205a7a" stroke="#205a7a"></path><path d="M559.3 243L607 369L643 291Z" fill="#205a7a" stroke="#205a7a"></path><path d="M643 291L730.7 367L746.7 265Z" fill="#112e42" stroke="#112e42"></path><path d="M526.3 359L607 369L559.3 243Z" fill="#112e42" stroke="#112e42"></path><path d="M394.7 281L526.3 359L559.3 243Z" fill="#246688" stroke="#246688"></path><path d="M758.7 74L616 0L669 102Z" fill="#112e42" stroke="#112e42"></path><path d="M669 102L616 0L563.3 98Z" fill="#112e42" stroke="#112e42"></path><path d="M563.3 98L441.7 50L438.7 150Z" fill="#1d4e6b" stroke="#1d4e6b"></path><path d="M827.3 120L758.7 74L739.7 203Z" fill="#246688" stroke="#246688"></path><path d="M739.7 203L758.7 74L669 102Z" fill="#00101c" stroke="#00101c"></path><path d="M616 0L554.3 0L563.3 98Z" fill="#0c2435" stroke="#0c2435"></path><path d="M746.7 265L813.3 200L739.7 203Z" fill="#277297" stroke="#277297"></path><path d="M607 369L730.7 367L643 291Z" fill="#19435d" stroke="#19435d"></path><path d="M746.7 265L887.3 289L813.3 200Z" fill="#1d4e6b" stroke="#1d4e6b"></path><path d="M554.3 0L441.7 50L563.3 98Z" fill="#19435d" stroke="#19435d"></path><path d="M304 174L394.7 281L438.7 150Z" fill="#277297" stroke="#277297"></path><path d="M438.7 150L394.7 281L559.3 243Z" fill="#081a28" stroke="#081a28"></path><path d="M526.3 359L612 423L607 369Z" fill="#0c2435" stroke="#0c2435"></path><path d="M607 369L612 423L730.7 367Z" fill="#246688" stroke="#246688"></path><path d="M523.3 486L612 423L526.3 359Z" fill="#1d4e6b" stroke="#1d4e6b"></path><path d="M813.3 200L827.3 120L739.7 203Z" fill="#19435d" stroke="#19435d"></path><path d="M394.7 281L403.7 341L526.3 359Z" fill="#297ea6" stroke="#297ea6"></path><path d="M840.3 0L772.7 0L758.7 74Z" fill="#15384f" stroke="#15384f"></path><path d="M758.7 74L772.7 0L616 0Z" fill="#19435d" stroke="#19435d"></path><path d="M554.3 0L391.7 0L441.7 50Z" fill="#1d4e6b" stroke="#1d4e6b"></path><path d="M302 69L304 174L438.7 150Z" fill="#297ea6" stroke="#297ea6"></path><path d="M302 69L438.7 150L441.7 50Z" fill="#0c2435" stroke="#0c2435"></path><path d="M394.7 281L317 301L403.7 341Z" fill="#00101c" stroke="#00101c"></path><path d="M386.7 476L523.3 486L526.3 359Z" fill="#246688" stroke="#246688"></path><path d="M865.3 468L876.3 343L730.7 367Z" fill="#277297" stroke="#277297"></path><path d="M304 174L317 301L394.7 281Z" fill="#19435d" stroke="#19435d"></path><path d="M403.7 341L386.7 476L526.3 359Z" fill="#0c2435" stroke="#0c2435"></path><path d="M876.3 343L746.7 265L730.7 367Z" fill="#297ea6" stroke="#297ea6"></path><path d="M876.3 343L887.3 289L746.7 265Z" fill="#19435d" stroke="#19435d"></path><path d="M813.3 200L960 215L827.3 120Z" fill="#081a28" stroke="#081a28"></path><path d="M960 97L840.3 0L827.3 120Z" fill="#297ea6" stroke="#297ea6"></path><path d="M827.3 120L840.3 0L758.7 74Z" fill="#246688" stroke="#246688"></path><path d="M764.7 487L730.7 367L612 423Z" fill="#246688" stroke="#246688"></path><path d="M216.3 333L319 351L317 301Z" fill="#112e42" stroke="#112e42"></path><path d="M317 301L319 351L403.7 341Z" fill="#112e42" stroke="#112e42"></path><path d="M391.7 0L302 69L441.7 50Z" fill="#205a7a" stroke="#205a7a"></path><path d="M667 540L764.7 487L612 423Z" fill="#297ea6" stroke="#297ea6"></path><path d="M523.3 486L667 540L612 423Z" fill="#297ea6" stroke="#297ea6"></path><path d="M319 351L386.7 476L403.7 341Z" fill="#112e42" stroke="#112e42"></path><path d="M523.3 486L523.3 540L667 540Z" fill="#246688" stroke="#246688"></path><path d="M445.7 540L523.3 540L523.3 486Z" fill="#1d4e6b" stroke="#1d4e6b"></path><path d="M302 69L244.3 185L304 174Z" fill="#15384f" stroke="#15384f"></path><path d="M304 174L244.3 185L317 301Z" fill="#246688" stroke="#246688"></path><path d="M960 272L960 215L887.3 289Z" fill="#1d4e6b" stroke="#1d4e6b"></path><path d="M887.3 289L960 215L813.3 200Z" fill="#1d4e6b" stroke="#1d4e6b"></path><path d="M876.3 343L960 272L887.3 289Z" fill="#246688" stroke="#246688"></path><path d="M960 393L960 272L876.3 343Z" fill="#1d4e6b" stroke="#1d4e6b"></path><path d="M667 540L740.7 540L764.7 487Z" fill="#19435d" stroke="#19435d"></path><path d="M764.7 487L865.3 468L730.7 367Z" fill="#081a28" stroke="#081a28"></path><path d="M391.7 0L285 0L302 69Z" fill="#19435d" stroke="#19435d"></path><path d="M302 69L180.3 99L244.3 185Z" fill="#205a7a" stroke="#205a7a"></path><path d="M960 215L960 97L827.3 120Z" fill="#0c2435" stroke="#0c2435"></path><path d="M386.7 476L445.7 540L523.3 486Z" fill="#112e42" stroke="#112e42"></path><path d="M818.3 540L865.3 468L764.7 487Z" fill="#0c2435" stroke="#0c2435"></path><path d="M319 351L319 460L386.7 476Z" fill="#205a7a" stroke="#205a7a"></path><path d="M386.7 476L298 540L445.7 540Z" fill="#081a28" stroke="#081a28"></path><path d="M212.3 465L319 460L319 351Z" fill="#205a7a" stroke="#205a7a"></path><path d="M740.7 540L818.3 540L764.7 487Z" fill="#297ea6" stroke="#297ea6"></path><path d="M188.3 308L216.3 333L317 301Z" fill="#0c2435" stroke="#0c2435"></path><path d="M960 474L960 393L865.3 468Z" fill="#277297" stroke="#277297"></path><path d="M865.3 468L960 393L876.3 343Z" fill="#1d4e6b" stroke="#1d4e6b"></path><path d="M960 97L960 0L840.3 0Z" fill="#246688" stroke="#246688"></path><path d="M244.3 185L188.3 308L317 301Z" fill="#00101c" stroke="#00101c"></path><path d="M212.3 465L298 540L319 460Z" fill="#15384f" stroke="#15384f"></path><path d="M131.7 288L188.3 308L119.7 217Z" fill="#297ea6" stroke="#297ea6"></path><path d="M201.3 0L180.3 99L302 69Z" fill="#112e42" stroke="#112e42"></path><path d="M285 0L201.3 0L302 69Z" fill="#277297" stroke="#277297"></path><path d="M960 540L960 474L865.3 468Z" fill="#277297" stroke="#277297"></path><path d="M212.3 465L319 351L216.3 333Z" fill="#00101c" stroke="#00101c"></path><path d="M319 460L298 540L386.7 476Z" fill="#0c2435" stroke="#0c2435"></path><path d="M145.7 329L212.3 465L216.3 333Z" fill="#1d4e6b" stroke="#1d4e6b"></path><path d="M131.7 288L145.7 329L188.3 308Z" fill="#112e42" stroke="#112e42"></path><path d="M188.3 308L145.7 329L216.3 333Z" fill="#081a28" stroke="#081a28"></path><path d="M119.7 217L188.3 308L244.3 185Z" fill="#15384f" stroke="#15384f"></path><path d="M119.7 217L244.3 185L180.3 99Z" fill="#297ea6" stroke="#297ea6"></path><path d="M108.7 92L119.7 217L180.3 99Z" fill="#112e42" stroke="#112e42"></path><path d="M818.3 540L960 540L865.3 468Z" fill="#081a28" stroke="#081a28"></path><path d="M201.3 0L108.7 92L180.3 99Z" fill="#112e42" stroke="#112e42"></path><path d="M212.3 465L193.3 540L298 540Z" fill="#112e42" stroke="#112e42"></path><path d="M127.7 456L193.3 540L212.3 465Z" fill="#277297" stroke="#277297"></path><path d="M127.7 456L212.3 465L145.7 329Z" fill="#19435d" stroke="#19435d"></path><path d="M0 346L145.7 329L131.7 288Z" fill="#0c2435" stroke="#0c2435"></path><path d="M0 419L127.7 456L145.7 329Z" fill="#246688" stroke="#246688"></path><path d="M0 273L131.7 288L119.7 217Z" fill="#112e42" stroke="#112e42"></path><path d="M201.3 0L86.7 0L108.7 92Z" fill="#19435d" stroke="#19435d"></path><path d="M108.7 92L0 180L119.7 217Z" fill="#19435d" stroke="#19435d"></path><path d="M0 540L127.7 540L127.7 456Z" fill="#081a28" stroke="#081a28"></path><path d="M127.7 456L127.7 540L193.3 540Z" fill="#1d4e6b" stroke="#1d4e6b"></path><path d="M0 123L0 180L108.7 92Z" fill="#0c2435" stroke="#0c2435"></path><path d="M0 0L0 123L108.7 92Z" fill="#1d4e6b" stroke="#1d4e6b"></path><path d="M0 180L0 273L119.7 217Z" fill="#081a28" stroke="#081a28"></path><path d="M0 273L0 346L131.7 288Z" fill="#081a28" stroke="#081a28"></path><path d="M86.7 0L0 0L108.7 92Z" fill="#081a28" stroke="#081a28"></path><path d="M0 346L0 419L145.7 329Z" fill="#00101c" stroke="#00101c"></path><path d="M0 419L0 540L127.7 456Z" fill="#15384f" stroke="#15384f"></path></g></svg>